<svg width="32" height="42" viewBox="0 0 32 42" fill="none" xmlns="http://www.w3.org/2000/svg">
<path d="M27.4142 22.1216C27.3864 22.3802 27.3726 22.5731 27.3597 22.6958C27.348 22.7934 27.27 22.869 27.1738 22.8734C27.0937 22.8734 26.9473 22.8865 26.7336 22.9019C26.5231 22.9271 26.2795 22.9424 26.0327 22.9424C26.0081 22.9424 25.9836 22.9424 25.9579 22.9424H25.9622C25.6556 22.9424 25.334 22.8876 24.9888 22.8876H20.7621C20.8166 23.3446 20.9629 23.7566 21.183 24.1172L21.1756 24.104C21.4117 24.4689 21.7429 24.7527 22.134 24.9204L22.1478 24.9259C22.6286 25.1429 23.1907 25.2689 23.7794 25.2689C23.8061 25.2689 23.8328 25.2689 23.8595 25.2678H23.8552C24.3521 25.2579 24.8296 25.2031 25.2923 25.1089L25.2399 25.1177C25.6823 25.0585 26.0829 24.9478 26.4612 24.7911L26.428 24.8032C26.4943 24.7495 26.5349 24.7758 26.5349 24.9127V27.0069C26.5328 27.0661 26.5221 27.122 26.506 27.1735L26.5071 27.1691C26.4825 27.2075 26.4515 27.2392 26.4163 27.2644L26.4152 27.2655C26.0306 27.4442 25.5829 27.5866 25.116 27.671L25.0818 27.6765C24.57 27.7817 23.9824 27.8431 23.3808 27.8431C23.3135 27.8431 23.2462 27.842 23.1789 27.8409H23.1885C23.1372 27.842 23.0774 27.8431 23.0165 27.8431C22.1553 27.8431 21.3348 27.6666 20.5868 27.3466L20.6285 27.362C19.9586 27.0584 19.3955 26.6168 18.9532 26.07L18.9468 26.0623C18.5408 25.5582 18.2256 24.9599 18.0354 24.3067L18.0268 24.2706C17.8495 23.6733 17.748 22.9862 17.748 22.275C17.748 21.497 17.8698 20.7485 18.0952 20.0483L18.0813 20.0987C18.3089 19.3776 18.6497 18.754 19.0889 18.216L19.0814 18.2248C19.5184 17.6856 20.0558 17.2473 20.6648 16.9382L20.6926 16.9251C21.2845 16.6544 21.9758 16.4966 22.7024 16.4966C22.7782 16.4966 22.8552 16.4988 22.9299 16.5021H22.9193C22.9524 16.501 22.9919 16.501 23.0315 16.501C23.7388 16.501 24.4108 16.6577 25.0156 16.9393L24.9856 16.9273C25.5466 17.1804 26.0156 17.5519 26.38 18.0143L26.3853 18.0209C26.7251 18.4647 26.9975 18.9831 27.177 19.5442L27.1866 19.5803C27.3469 20.0746 27.4388 20.6433 27.4388 21.234C27.4388 21.2394 27.4388 21.2438 27.4388 21.2493C27.4388 21.577 27.426 21.8641 27.4132 22.1238L27.4142 22.1216ZM16.9456 27.58H14.1591C14.1537 27.58 14.1473 27.5811 14.1409 27.5811C14.049 27.5811 13.971 27.5176 13.9464 27.431L12.8534 24.1478H7.89369L6.8808 27.3751C6.85836 27.4858 6.76434 27.568 6.65215 27.568C6.64361 27.568 6.63506 27.568 6.62651 27.5669H4.121C3.97462 27.5669 3.93402 27.4847 3.97462 27.3203L8.26765 14.6961C8.30718 14.5591 8.34778 14.4364 8.4012 14.272C8.45249 14.0068 8.48133 13.7022 8.48133 13.3909C8.48133 13.3888 8.48133 13.3855 8.48133 13.3833C8.48027 13.3778 8.48027 13.3723 8.48027 13.3657C8.48027 13.3 8.52621 13.2452 8.58711 13.2331H8.58818H12.0414C12.1344 13.2331 12.2017 13.2737 12.2145 13.3427L17.0813 27.3598C17.1208 27.5099 17.0823 27.58 16.9477 27.58H16.9456ZM26.333 5H5.66598C5.66491 5 5.66277 5 5.6617 5C2.53436 5 0 7.60046 0 10.8069C0 10.8091 0 10.8102 0 10.8124V31.1887C0 31.1898 0 31.192 0 31.1931C0 34.4006 2.53543 37 5.6617 37C5.66384 37 5.66491 37 5.66704 37H26.334C26.3351 37 26.3372 37 26.3383 37C29.4656 37 32 34.3995 32 31.1931C32 31.1909 32 31.1898 32 31.1876V10.8113C32 10.8102 32 10.808 32 10.8069C32 7.59936 29.4646 5 26.3383 5C26.3362 5 26.3351 5 26.333 5ZM22.8263 18.8669C22.7953 18.8647 22.7579 18.8636 22.7216 18.8636C21.9993 18.8636 21.3722 19.2822 21.058 19.8959L21.0527 19.9069C20.9052 20.1929 20.8016 20.5249 20.761 20.8778L20.7599 20.891H23.5721C23.9183 20.891 24.1726 20.891 24.3318 20.8778C24.4471 20.8679 24.5519 20.8285 24.6405 20.7671L24.6384 20.7682V20.6312V20.6301C24.6384 20.4493 24.6085 20.2762 24.554 20.114L24.5572 20.125C24.3243 19.3885 23.6618 18.8658 22.8797 18.8658C22.8605 18.8658 22.8423 18.8658 22.8231 18.8669H22.8263ZM11.3854 19.2636C11.2518 18.8395 11.1322 18.4297 10.9986 18.0056C10.865 17.5815 10.7454 17.1848 10.6385 16.7881C10.5317 16.4056 10.4387 16.0495 10.3447 15.7218H10.318C10.1738 16.4352 10.0178 17.027 9.83185 17.6045L9.86497 17.4861C9.66517 18.1426 9.46538 18.8264 9.25169 19.5102C9.0786 20.2072 8.86491 20.8504 8.66511 21.4246H12.0521C11.972 21.1375 11.8651 20.7956 11.7454 20.4395C11.6258 20.0702 11.505 19.6735 11.3854 19.2636Z" fill="black"/>
</svg>
