<svg width="32" height="42" viewBox="0 0 32 42" fill="none" xmlns="http://www.w3.org/2000/svg">
<path d="M30.4445 5L27.7774 33.8887L16.2221 37L4.66653 33.8887L2 5H30.4445ZM25.0702 10.8741H16.2117H7.19623L7.62739 14.3626H16.2117H16.6939L16.2117 14.5633L7.94113 18.008L8.21541 21.4179L16.2117 21.4439L20.4975 21.4575L20.2231 26.0042L16.2116 27.1336V27.1301L16.1787 27.1392L12.3047 26.1612L12.0696 23.3388H12.0567H8.46334H8.45069L8.92105 28.7874L16.2118 30.9435V30.9396L16.2249 30.9435L23.4765 28.8267L24.4172 18.008H16.2118H16.1915L16.2118 17.9992L24.7178 14.3626L25.0702 10.8741Z" fill="black"/>
</svg>
