<svg width="32" height="42" viewBox="0 0 32 42" fill="none" xmlns="http://www.w3.org/2000/svg">
<path d="M16 5C24.7742 5 32 12.2258 32 21C32 29.8387 24.7742 37 16 37C7.16129 37 0 29.8387 0 21C0 12.2258 7.16129 5 16 5ZM26.5161 12.4194C26.2581 12.8065 24 15.7097 18.9032 17.7742C19.4194 18.8065 19.7419 19.5806 20.129 20.4839C24.6452 19.9032 29.1613 20.8065 29.6129 20.9355C29.6129 17.7097 28.4516 14.7419 26.5161 12.4194ZM25.0323 10.8065C21.6774 7.83871 17.0968 6.74194 12.7742 7.77419C13.1613 8.29032 15.6129 11.6452 17.871 15.7742C22.7097 13.9677 24.7742 11.1935 25.0323 10.8065ZM10.129 8.67742C6.32258 10.4839 3.48387 14.0323 2.58065 18.2258C3.22581 18.2903 8.83871 18.2903 15.2258 16.6129C12.9677 12.5484 10.5161 9.19355 10.129 8.67742ZM2.32258 21.0645C2.32258 24.5484 3.6129 27.7742 5.80645 30.1613C8 26.4194 12.5161 22.4194 17.4839 21C17.0968 20.2258 16.7742 19.4516 16.3226 18.6774C9.54839 20.7419 2.90323 20.6774 2.32258 20.6129C2.32258 20.8065 2.32258 20.9355 2.32258 21.0645ZM7.54839 31.8387C11.6129 35 16.9032 35.5161 21.2903 33.6452C21.0968 32.4194 20.3226 28.2258 18.3871 23.2581C12.9032 25.129 9.03226 28.9355 7.54839 31.8387ZM23.6129 32.3548C26.6452 30.2903 28.8387 27 29.4839 23.1935C28.9677 23.0645 25.2258 21.9677 20.9677 22.6129C22.7097 27.5806 23.4839 31.5806 23.6129 32.3548Z" fill="black"/>
</svg>
