<svg width="32" height="42" viewBox="0 0 32 42" fill="none" xmlns="http://www.w3.org/2000/svg">
<path d="M0 18.875C0 14.5547 3.55556 11 8 11C12.3889 11 16 14.5547 16 18.875V28.5C16 30.4688 14.3889 32 12.4444 32H3.55556C1.55556 32 0 30.4688 0 28.5V18.875ZM3.55556 18.875C3.55556 19.3672 3.94444 19.75 4.44444 19.75H11.5556C12 19.75 12.4444 19.3672 12.4444 18.875C12.4444 18.4375 12 18 11.5556 18H4.44444C3.94444 18 3.55556 18.4375 3.55556 18.875ZM17.7778 18.875C17.7778 15.6484 16.1111 12.75 13.6111 11H24C28.3889 11 32 14.5547 32 18.875V28.5C32 30.4688 30.3889 32 28.4444 32H16.3889C17.2222 31.0703 17.7778 29.8672 17.7778 28.5V18.875ZM21.3333 18.875C21.3333 19.3672 21.7222 19.75 22.2222 19.75H24.8889V22.375C24.8889 22.8672 25.2778 23.25 25.7778 23.25H27.5556C28 23.25 28.4444 22.8672 28.4444 22.375V18.875C28.4444 18.4375 28 18 27.5556 18H22.2222C21.7222 18 21.3333 18.4375 21.3333 18.875Z" fill="#8400FF"/>
</svg>
