<svg width="32" height="42" viewBox="0 0 32 42" fill="none" xmlns="http://www.w3.org/2000/svg">
<rect y="5" width="32" height="32" rx="5" fill="black"/>
<path fill-rule="evenodd" clip-rule="evenodd" d="M9.95961 17.5547C8.7799 16.8215 8 15.5523 8 14.1093C8 11.8398 9.92912 10 12.3088 10H19.6912C22.0709 10 24 11.8398 24 14.1093C24 15.5523 23.2201 16.8215 22.0404 17.5547C23.2201 18.2878 24 19.5571 24 21C24 23.2695 22.0709 25.1093 19.6912 25.1093H19.6126C18.4878 25.1093 17.4635 24.6982 16.6962 24.0249V27.8533C16.6962 30.1481 14.7248 32 12.3283 32C9.95354 32 8 30.1649 8 27.8907C8 26.4478 8.77986 25.1785 9.95953 24.4454C8.77986 23.7123 8 22.443 8 21C8 19.5571 8.7799 18.2878 9.95961 17.5547ZM16.6962 21C16.6962 22.5362 18.0019 23.7815 19.6126 23.7815H19.6912C21.3019 23.7815 22.6077 22.5362 22.6077 21C22.6077 19.4639 21.3019 18.2186 19.6912 18.2186H19.6126C18.0019 18.2186 16.6962 19.4639 16.6962 21ZM15.3038 18.2186H12.3088C10.6981 18.2186 9.39232 19.4639 9.39232 21C9.39232 22.5331 10.6928 23.7764 12.299 23.7815H12.3036H15.3038V18.2186ZM12.3088 25.1093C12.3055 25.1093 12.3023 25.1093 12.299 25.1093C10.6928 25.1143 9.39232 26.3577 9.39232 27.8907C9.39232 29.4222 10.7127 30.6722 12.3283 30.6722C13.9656 30.6722 15.3038 29.4055 15.3038 27.8533V25.1093H12.3088ZM15.3038 16.8907H12.3088C10.6981 16.8907 9.39232 15.6454 9.39232 14.1093C9.39232 12.5731 10.6981 11.3278 12.3088 11.3278H15.3038V16.8907ZM19.6912 16.8907H16.6962V11.3278H19.6912C21.3019 11.3278 22.6077 12.5731 22.6077 14.1093C22.6077 15.6454 21.3019 16.8907 19.6912 16.8907Z" fill="white"/>
</svg>
