<svg width="32" height="42" viewBox="0 0 32 42" fill="none" xmlns="http://www.w3.org/2000/svg">
<path d="M10.6452 30.9632C10.6452 30.8352 10.5161 30.7072 10.3226 30.7072C10.129 30.7072 10 30.8352 10 30.9632C10 31.0912 10.129 31.2192 10.3226 31.1552C10.5161 31.1552 10.6452 31.0912 10.6452 30.9632ZM8.64516 30.6431C8.70968 30.5151 8.90323 30.4511 9.09677 30.5151C9.29032 30.5791 9.35484 30.7072 9.35484 30.8352C9.29032 30.9632 9.09677 31.0272 8.96774 30.9632C8.77419 30.9632 8.64516 30.7712 8.64516 30.6431ZM11.5484 30.5791C11.6774 30.5151 11.871 30.6431 11.871 30.7712C11.9355 30.8992 11.8065 30.9632 11.6129 31.0272C11.4194 31.0912 11.2258 31.0272 11.2258 30.8992C11.2258 30.7072 11.3548 30.5791 11.5484 30.5791ZM15.7419 6C24.7097 6 32 12.7849 32 21.618C32 28.7229 27.6129 34.8037 21.1613 36.9159C20.3226 37.108 20 36.5959 20 36.1478C20 35.6358 20.0645 32.9474 20.0645 30.8352C20.0645 29.299 19.5484 28.3388 18.9677 27.8268C22.5806 27.4427 26.3871 26.9307 26.3871 20.7859C26.3871 18.9937 25.7419 18.1616 24.7097 17.0094C24.8387 16.5613 25.4194 14.8971 24.5161 12.6568C23.1613 12.2088 20.0645 14.3851 20.0645 14.3851C18.7742 14.001 17.4194 13.873 16 13.873C14.6452 13.873 13.2903 14.001 12 14.3851C12 14.3851 8.83871 12.2728 7.54839 12.6568C6.64516 14.8971 7.16129 16.5613 7.35484 17.0094C6.32258 18.1616 5.80645 18.9937 5.80645 20.7859C5.80645 26.9307 9.48387 27.4427 13.0968 27.8268C12.5806 28.2748 12.1935 28.9789 12.0645 30.0031C11.0968 30.4511 8.77419 31.1552 7.35484 28.6589C6.45161 27.1227 4.83871 26.9947 4.83871 26.9947C3.29032 26.9947 4.77419 28.0188 4.77419 28.0188C5.80645 28.4669 6.51613 30.3231 6.51613 30.3231C7.48387 33.2035 12 32.2433 12 32.2433C12 33.5875 12 35.7638 12 36.2119C12 36.5959 11.7419 37.108 10.9032 36.98C4.45161 34.8037 0 28.7229 0 21.618C0 12.7849 6.83871 6 15.7419 6ZM6.25806 28.0828C6.32258 28.0188 6.45161 28.0828 6.58064 28.1468C6.70968 28.2748 6.70968 28.4669 6.64516 28.5309C6.51613 28.5949 6.3871 28.5309 6.25806 28.4669C6.19355 28.3388 6.12903 28.1468 6.25806 28.0828ZM5.54839 27.5708C5.6129 27.5067 5.67742 27.5067 5.80645 27.5708C5.93548 27.6348 6 27.6988 6 27.7628C5.93548 27.8908 5.80645 27.8908 5.67742 27.8268C5.54839 27.7628 5.48387 27.6988 5.54839 27.5708ZM7.6129 29.875C7.74194 29.747 7.93548 29.811 8.06452 29.9391C8.19355 30.0671 8.19355 30.2591 8.12903 30.3231C8.06452 30.4511 7.87097 30.3871 7.74194 30.2591C7.54839 30.1311 7.54839 29.9391 7.6129 29.875ZM6.90323 28.9149C7.03226 28.8509 7.16129 28.9149 7.29032 29.0429C7.35484 29.171 7.35484 29.363 7.29032 29.427C7.16129 29.491 7.03226 29.427 6.90323 29.299C6.77419 29.171 6.77419 28.9789 6.90323 28.9149Z" fill="black"/>
</svg>
