<svg width="32" height="42" viewBox="0 0 32 42" fill="none" xmlns="http://www.w3.org/2000/svg">
<path d="M14.2211 18.6198L15.4227 22.3828H11.5008L12.6797 18.6198C12.9518 17.713 13.1784 16.6476 13.405 15.7635H13.4503C13.6771 16.6477 13.9263 17.6903 14.2211 18.6198ZM31.9999 10.3333V31.6667C31.9999 34.6 29.5999 37 26.6666 37H5.33334C2.4 36.9999 0 34.5999 0 31.6666V10.3333C0 7.4 2.4 5 5.33334 5H26.6667C29.5999 5 31.9999 7.4 31.9999 10.3333ZM20.2737 28.8205L15.3091 13.5422H11.7502L6.85387 28.8205H9.7328L11.0477 24.4908H15.8987L17.2815 28.8205H20.2737ZM24.9875 17.781H22.1765V28.8205H24.9875V17.781ZM25.1461 14.6982C25.1234 13.8367 24.5341 13.1795 23.582 13.1795C22.6525 13.1795 22.0179 13.8367 22.0179 14.6982C22.0179 15.537 22.6298 16.1943 23.5593 16.1943C24.5341 16.1942 25.1461 15.5369 25.1461 14.6982Z" fill="black"/>
</svg>
