<svg width="32" height="42" viewBox="0 0 32 42" fill="none" xmlns="http://www.w3.org/2000/svg">
<path fill-rule="evenodd" clip-rule="evenodd" d="M24.5248 34.4914C22.3905 34.4914 20.8331 33.7136 19.8247 32.5696C19.3083 31.9837 19.5763 31.1135 20.2521 30.7221C20.944 30.3213 21.7945 30.5904 22.4029 31.1092C22.9236 31.5533 23.5776 31.8273 24.4608 31.8273C25.7056 31.8273 26.5008 31.2045 26.5008 30.3453C26.5008 29.0525 24.776 28.5474 23.5584 28.0258C21.3888 27.1026 19.9488 25.9426 19.9488 23.493C19.9488 21.2386 21.6672 19.5203 24.3536 19.5203C25.8125 19.5203 26.9598 19.9084 27.8602 20.8665C28.3635 21.4019 28.1433 22.2359 27.5251 22.633C26.8538 23.0644 26.0129 22.7306 25.3089 22.3549C25.0319 22.2071 24.7201 22.1406 24.3536 22.1406C23.472 22.1406 22.9136 22.6993 22.9136 23.4289C22.9136 24.3313 23.472 24.6963 24.7616 25.2547C27.464 26.4131 29.5088 27.3231 29.5088 30.3023C29.5088 33.0095 27.3824 34.4914 24.5248 34.4914ZM17.6 29.9586C17.6 33.0738 15.6816 34.7203 13.0176 34.7203C10.6222 34.7203 9.18285 33.8084 8.4706 32.222C8.46463 32.2087 8.45139 32.2 8.43682 32.2H8.42559C8.42362 32.2 8.42282 32.1975 8.42443 32.1963L10.2356 30.9302C10.5732 30.6942 11.0283 30.8099 11.2746 31.1402C11.6306 31.6177 12.058 31.9203 12.7936 31.9203C13.7824 31.9203 14.4 31.4196 14.4 29.9172V21C14.4 20.1163 15.1163 19.4 16 19.4C16.8837 19.4 17.6 20.1163 17.6 21V29.9586ZM0 32C0 34.7614 2.23858 37 5 37H27C29.7614 37 32 34.7614 32 32V10C32 7.23858 29.7614 5 27 5H5C2.23858 5 0 7.23858 0 10V32Z" fill="black"/>
</svg>
