<svg width="32" height="42" viewBox="0 0 32 42" fill="none" xmlns="http://www.w3.org/2000/svg">
<path d="M29.7143 5C30.9286 5 32 6.07143 32 7.35714V34.7143C32 36 30.9286 37 29.7143 37H2.21429C1 37 0 36 0 34.7143V7.35714C0 6.07143 1 5 2.21429 5H29.7143ZM9.64286 32.4286V17.2143H4.92857V32.4286H9.64286ZM7.28571 15.0714C8.78571 15.0714 10 13.8571 10 12.3571C10 10.8571 8.78571 9.57143 7.28571 9.57143C5.71429 9.57143 4.5 10.8571 4.5 12.3571C4.5 13.8571 5.71429 15.0714 7.28571 15.0714ZM27.4286 32.4286V24.0714C27.4286 20 26.5 16.7857 21.7143 16.7857C19.4286 16.7857 17.8571 18.0714 17.2143 19.2857H17.1429V17.2143H12.6429V32.4286H17.3571V24.9286C17.3571 22.9286 17.7143 21 20.2143 21C22.6429 21 22.6429 23.2857 22.6429 25V32.4286H27.4286Z" fill="black"/>
</svg>
