<svg width="32" height="42" viewBox="0 0 32 42" fill="none" xmlns="http://www.w3.org/2000/svg">
<g clip-path="url(#clip0_122_375)">
<path d="M10.8564 14.1286C10.0466 14.1286 9.49689 14.2073 9.21106 14.288V19.4933C9.55186 19.5703 9.96777 19.5959 10.5431 19.5959C12.663 19.5959 13.9712 18.5241 13.9712 16.7175C13.9694 15.0978 12.8444 14.1286 10.8564 14.1286Z" fill="black"/>
<path d="M30.0487 5.00391H1.96049C0.877641 5.00391 0 5.87972 0 6.9589V35.0452C0 36.1263 0.877641 37.0039 1.96049 37.0039H30.0487C31.1297 37.0039 32.0073 36.1263 32.0073 35.0452V6.96073C32.0073 5.87972 31.1297 5.00391 30.0487 5.00391ZM16.2959 20.8014C14.9382 22.084 12.9209 22.6593 10.5702 22.6593C10.0443 22.6593 9.57526 22.6337 9.20882 22.5805V28.8871H5.25668V11.4882C6.48611 11.2811 8.21208 11.1236 10.6471 11.1236C13.1042 11.1236 14.8594 11.5926 16.0339 12.5362C17.1644 13.4267 17.9211 14.8925 17.9211 16.6185C17.9211 18.3444 17.3439 19.8047 16.2959 20.8014ZM22.2525 29.1473C20.5742 29.1473 19.0846 28.7845 18.1153 28.2586L18.8207 25.4077C19.5536 25.8493 21.0725 26.3733 22.2525 26.3733C23.4526 26.3733 23.951 25.9555 23.951 25.2996C23.951 24.6473 23.5589 24.334 22.0693 23.8356C19.4272 22.947 18.4048 21.5069 18.4305 19.9898C18.4305 17.6115 20.4716 15.8013 23.6377 15.8013C25.1291 15.8013 26.463 16.1439 27.2472 16.5342L26.5418 19.2825C25.9664 18.9674 24.8689 18.5515 23.7678 18.5515C22.8022 18.5515 22.2543 18.9436 22.2543 19.5977C22.2543 20.1986 22.7472 20.512 24.3174 21.0635C26.7506 21.899 27.773 23.1302 27.7968 25.0101C27.7968 27.3938 25.9096 29.1473 22.2525 29.1473Z" fill="black"/>
</g>
<defs>
<clipPath id="clip0_122_375">
<rect width="32" height="42" rx="5" fill="white"/>
</clipPath>
</defs>
</svg>
