<svg width="32" height="42" viewBox="0 0 32 42" fill="none" xmlns="http://www.w3.org/2000/svg">
<path d="M18.6 11.6C18.6 12.65 17.95 13.55 17.1 14L22.4 18.6L27.6 17.6C27.35 17.2 27.2 16.7 27.2 16.2C27.2 14.9 28.25 13.8 29.6 13.8C30.9 13.8 32 14.9 32 16.2C32 17.5 30.95 18.6 29.65 18.6L24.05 31.15C23.5 32.3 22.35 33 21.1 33H10.85C9.6 33 8.45 32.3 7.95 31.15L2.3 18.6C1 18.6 0 17.5 0 16.2C0 14.9 1.05 13.8 2.4 13.8C3.7 13.8 4.8 14.9 4.8 16.2C4.8 16.75 4.6 17.2 4.35 17.6L9.6 18.6L14.9 14C14 13.55 13.4 12.65 13.4 11.6C13.4 10.2 14.55 9 16 9C17.4 9 18.6 10.2 18.6 11.6Z" fill="black"/>
</svg>
