<svg width="32" height="42" viewBox="0 0 32 42" fill="none" xmlns="http://www.w3.org/2000/svg">
<path d="M20.4189 5C24.4727 5 26.4996 5.00016 28.0479 5.78906C29.4098 6.48301 30.517 7.59023 31.2109 8.95215C31.9998 10.5005 32 12.5274 32 16.5811V25.4189C32 29.4727 31.9999 31.4996 31.2109 33.0479C30.517 34.4098 29.4098 35.517 28.0479 36.2109C26.4996 36.9999 24.4727 37 20.4189 37H11.5811C7.52738 37 5.50046 36.9998 3.95215 36.2109C2.59023 35.517 1.48301 34.4098 0.789062 33.0479C0.000159621 31.4996 0 29.4727 0 25.4189V16.5811C0 12.5274 0.000159621 10.5005 0.789062 8.95215C1.48301 7.59022 2.59022 6.48301 3.95215 5.78906C5.50046 5.00016 7.52737 5 11.5811 5H20.4189ZM24.3379 13.001C24.2522 13.0011 24.209 13.0528 24.209 13.1553V17.4932C21.8087 17.2727 19.2819 18.1124 18.0273 20.3545C17.5412 21.2333 17.2888 22.2287 17.2969 23.2393C17.2968 24.4871 17.5407 25.5254 18.0273 26.3545C19.0241 28.0812 21.0065 28.8605 22.8994 28.8311C24.3459 28.8244 25.7926 28.5443 27.1289 27.9727C27.2099 27.9344 27.2629 27.8442 27.2578 27.7529C27.2251 27.2175 27.1719 26.6823 27.1719 26.1455V13.1328C27.1821 13.0572 27.1167 12.9902 27.043 13.001H24.3379ZM4.82617 14.1904C4.70859 14.1823 4.64545 14.2888 4.71875 14.3887L8.75391 21.3896L4.61133 28.3691C4.54622 28.472 4.56023 28.5586 4.67578 28.5586H7.61621C7.75913 28.5586 7.85963 28.5452 7.91699 28.4131C8.2318 27.8409 8.53936 27.2645 8.83984 26.6846C9.14012 26.105 9.44412 25.5217 9.75195 24.9346C10.0594 24.3475 10.3786 23.7601 10.665 23.1729C10.9799 23.7749 11.2981 24.3702 11.6201 24.957C11.9417 25.5441 12.2459 26.1199 12.5322 26.6846C12.8183 27.2497 13.1041 27.8191 13.3906 28.3916C13.4765 28.5383 13.6271 28.5459 13.8418 28.5459H16.8896C17.0182 28.5459 17.1071 28.5101 17.0186 28.3477L12.7471 21.1699L16.7393 14.4102C16.7836 14.3366 16.7393 14.1904 16.6318 14.1904H13.8203C13.6918 14.1774 13.6006 14.2407 13.5625 14.3662C13.2762 14.9388 12.9795 15.5151 12.6719 16.0947C12.364 16.6745 12.0638 17.2508 11.7705 17.8232C11.4771 18.3957 11.1864 18.9824 10.9004 19.584C10.6286 18.997 10.3102 18.417 9.98828 17.8447C9.66616 17.2726 9.34775 16.6926 9.0332 16.1055C8.71849 15.5187 8.43234 14.9317 8.1748 14.3447C8.0997 14.2326 7.98357 14.1831 7.85254 14.1904H4.82617ZM20.3457 23.1074C20.3455 21.0398 22.2484 19.5463 24.209 20.0908V26.1016C22.1415 26.7216 20.2995 25.2448 20.3457 23.1074Z" fill="black"/>
</svg>
