<svg width="32" height="42" viewBox="0 0 32 42" fill="none" xmlns="http://www.w3.org/2000/svg">
<path d="M28.209 12.4415L19.6911 20.9594L28.209 29.5585C29.2637 30.532 29.2637 32.2356 28.209 33.209C27.2356 34.2637 25.532 34.2637 24.5585 33.209L16.0406 24.6911L7.4415 33.209C6.46802 34.2637 4.76443 34.2637 3.79095 33.209C2.73635 32.2356 2.73635 30.532 3.79095 29.5585L12.3089 20.9594L3.79095 12.4415C2.73635 11.468 2.73635 9.76443 3.79095 8.79095C4.76443 7.73635 6.46802 7.73635 7.4415 8.79095L16.0406 17.3089L24.5585 8.79095C25.532 7.73635 27.2356 7.73635 28.209 8.79095C29.2637 9.76443 29.2637 11.468 28.209 12.4415Z" fill="black"/>
</svg>
